<?xml version="1.0" encoding="utf-8"?>
<!-- Generator: Adobe Illustrator 19.0.0, SVG Export Plug-In . SVG Version: 6.00 Build 0)  -->
<svg version="1.1" id="Layer_2" xmlns="http://www.w3.org/2000/svg" xmlns:xlink="http://www.w3.org/1999/xlink" x="0px" y="0px"
	 viewBox="0 0 196.3 106.3" style="enable-background:new 0 0 196.3 106.3;" xml:space="preserve">
<style type="text/css">
	.st0{fill:#333333;}
</style>
<circle class="st0" cx="12.7" cy="30.7" r="3.7"/>
<circle class="st0" cx="3.7" cy="30.7" r="3.7"/>
<circle class="st0" cx="21.7" cy="30.7" r="3.7"/>
<circle class="st0" cx="21.7" cy="21.7" r="3.7"/>
<circle class="st0" cx="12.7" cy="21.7" r="3.7"/>
<circle class="st0" cx="30.7" cy="21.7" r="3.7"/>
<circle class="st0" cx="30.7" cy="12.7" r="3.7"/>
<circle class="st0" cx="30.7" cy="30.7" r="3.7"/>
<circle class="st0" cx="30.7" cy="39.7" r="3.7"/>
<circle class="st0" cx="30.7" cy="48.7" r="3.7"/>
<circle class="st0" cx="39.7" cy="48.7" r="3.7"/>
<circle class="st0" cx="39.7" cy="57.7" r="3.7"/>
<circle class="st0" cx="39.7" cy="39.7" r="3.7"/>
<circle class="st0" cx="39.7" cy="30.7" r="3.7"/>
<circle class="st0" cx="39.7" cy="21.7" r="3.7"/>
<circle class="st0" cx="39.7" cy="12.7" r="3.7"/>
<circle class="st0" cx="48.7" cy="12.7" r="3.7"/>
<circle class="st0" cx="48.7" cy="3.7" r="3.7"/>
<circle class="st0" cx="57.7" cy="3.7" r="3.7"/>
<circle class="st0" cx="66.7" cy="3.7" r="3.7"/>
<circle class="st0" cx="66.7" cy="12.7" r="3.7"/>
<circle class="st0" cx="75.7" cy="21.7" r="3.7"/>
<circle class="st0" cx="57.7" cy="21.7" r="3.7"/>
<circle class="st0" cx="48.7" cy="21.7" r="3.7"/>
<circle class="st0" cx="48.7" cy="30.7" r="3.7"/>
<circle class="st0" cx="57.7" cy="30.7" r="3.7"/>
<circle class="st0" cx="57.7" cy="39.7" r="3.7"/>
<circle class="st0" cx="48.7" cy="39.7" r="3.7"/>
<circle class="st0" cx="48.7" cy="48.7" r="3.7"/>
<circle class="st0" cx="48.7" cy="57.7" r="3.7"/>
<circle class="st0" cx="57.7" cy="57.7" r="3.7"/>
<circle class="st0" cx="57.7" cy="66.7" r="3.7"/>
<circle class="st0" cx="57.7" cy="75.7" r="3.7"/>
<circle class="st0" cx="57.7" cy="84.7" r="3.7"/>
<circle class="st0" cx="57.7" cy="93.7" r="3.7"/>
<circle class="st0" cx="57.7" cy="102.7" r="3.7"/>
<circle class="st0" cx="66.7" cy="84.7" r="3.7"/>
<circle class="st0" cx="66.7" cy="75.7" r="3.7"/>
<circle class="st0" cx="66.7" cy="66.7" r="3.7"/>
<circle class="st0" cx="75.7" cy="66.7" r="3.7"/>
<circle class="st0" cx="75.7" cy="75.7" r="3.7"/>
<circle class="st0" cx="93.7" cy="66.7" r="3.7"/>
<circle class="st0" cx="93.7" cy="57.7" r="3.7"/>
<circle class="st0" cx="93.7" cy="48.7" r="3.7"/>
<circle class="st0" cx="93.7" cy="39.7" r="3.7"/>
<circle class="st0" cx="93.7" cy="30.7" r="3.7"/>
<circle class="st0" cx="102.7" cy="30.7" r="3.7"/>
<circle class="st0" cx="102.7" cy="39.7" r="3.7"/>
<circle class="st0" cx="102.7" cy="48.7" r="3.7"/>
<circle class="st0" cx="102.7" cy="57.7" r="3.7"/>
<circle class="st0" cx="102.7" cy="66.7" r="3.7"/>
<circle class="st0" cx="111.7" cy="66.7" r="3.7"/>
<circle class="st0" cx="111.7" cy="75.7" r="3.7"/>
<circle class="st0" cx="111.7" cy="84.7" r="3.7"/>
<circle class="st0" cx="120.7" cy="75.7" r="3.7"/>
<circle class="st0" cx="120.7" cy="66.7" r="3.7"/>
<circle class="st0" cx="120.7" cy="57.7" r="3.7"/>
<circle class="st0" cx="111.7" cy="57.7" r="3.7"/>
<circle class="st0" cx="111.7" cy="48.7" r="3.7"/>
<circle class="st0" cx="120.7" cy="48.7" r="3.7"/>
<circle class="st0" cx="120.7" cy="39.7" r="3.7"/>
<circle class="st0" cx="111.7" cy="39.7" r="3.7"/>
<circle class="st0" cx="111.7" cy="30.7" r="3.7"/>
<circle class="st0" cx="111.7" cy="21.7" r="3.7"/>
<circle class="st0" cx="120.7" cy="21.7" r="3.7"/>
<circle class="st0" cx="120.7" cy="30.7" r="3.7"/>
<circle class="st0" cx="129.7" cy="30.7" r="3.7"/>
<circle class="st0" cx="129.7" cy="39.7" r="3.7"/>
<circle class="st0" cx="129.7" cy="48.7" r="3.7"/>
<circle class="st0" cx="138.7" cy="48.7" r="3.7"/>
<circle class="st0" cx="138.7" cy="57.7" r="3.7"/>
<circle class="st0" cx="138.7" cy="39.7" r="3.7"/>
<circle class="st0" cx="138.7" cy="30.7" r="3.7"/>
<circle class="st0" cx="138.7" cy="21.7" r="3.7"/>
<circle class="st0" cx="129.7" cy="21.7" r="3.7"/>
<circle class="st0" cx="129.7" cy="12.7" r="3.7"/>
<circle class="st0" cx="129.7" cy="3.7" r="3.7"/>
<circle class="st0" cx="138.7" cy="3.7" r="3.7"/>
<circle class="st0" cx="138.7" cy="12.7" r="3.7"/>
<circle class="st0" cx="147.7" cy="3.7" r="3.7"/>
<circle class="st0" cx="147.7" cy="12.7" r="3.7"/>
<circle class="st0" cx="147.7" cy="21.7" r="3.7"/>
<circle class="st0" cx="147.7" cy="30.7" r="3.7"/>
<circle class="st0" cx="147.7" cy="39.7" r="3.7"/>
<circle class="st0" cx="147.7" cy="48.7" r="3.7"/>
<circle class="st0" cx="156.7" cy="48.7" r="3.7"/>
<circle class="st0" cx="156.7" cy="39.7" r="3.7"/>
<circle class="st0" cx="156.7" cy="30.7" r="3.7"/>
<circle class="st0" cx="156.7" cy="21.7" r="3.7"/>
<circle class="st0" cx="156.7" cy="12.7" r="3.7"/>
<circle class="st0" cx="165.7" cy="21.7" r="3.7"/>
<circle class="st0" cx="165.7" cy="30.7" r="3.7"/>
<circle class="st0" cx="165.7" cy="39.7" r="3.7"/>
<circle class="st0" cx="165.7" cy="48.7" r="3.7"/>
<circle class="st0" cx="165.7" cy="66.7" r="3.7"/>
<circle class="st0" cx="174.7" cy="66.7" r="3.7"/>
<circle class="st0" cx="174.7" cy="75.7" r="3.7"/>
<circle class="st0" cx="174.7" cy="84.7" r="3.7"/>
<circle class="st0" cx="165.7" cy="84.7" r="3.7"/>
<circle class="st0" cx="165.7" cy="75.7" r="3.7"/>
<circle class="st0" cx="156.7" cy="66.7" r="3.7"/>
<circle class="st0" cx="174.7" cy="39.7" r="3.7"/>
<circle class="st0" cx="174.7" cy="30.7" r="3.7"/>
<circle class="st0" cx="183.7" cy="30.7" r="3.7"/>
<circle class="st0" cx="183.7" cy="21.7" r="3.7"/>
<circle class="st0" cx="192.7" cy="21.7" r="3.7"/>
<circle class="st0" cx="174.7" cy="21.7" r="3.7"/>
<circle class="st0" cx="174.7" cy="12.7" r="3.7"/>
</svg>
