<?xml version="1.0" encoding="utf-8"?>
<!-- Generator: Adobe Illustrator 19.1.0, SVG Export Plug-In . SVG Version: 6.00 Build 0)  -->
<svg version="1.1" id="Layer_2" xmlns="http://www.w3.org/2000/svg" xmlns:xlink="http://www.w3.org/1999/xlink" x="0px" y="0px"
	 viewBox="-207 343.7 196.3 106.3" style="enable-background:new -207 343.7 196.3 106.3;" xml:space="preserve">
<style type="text/css">
	.st0{fill:#333333;fill-opacity:0.5;}
</style>
<circle class="st0" cx="-194.3" cy="374.4" r="3.7"/>
<circle class="st0" cx="-203.3" cy="374.4" r="3.7"/>
<circle class="st0" cx="-185.3" cy="374.4" r="3.7"/>
<circle class="st0" cx="-185.3" cy="365.4" r="3.7"/>
<circle class="st0" cx="-194.3" cy="365.4" r="3.7"/>
<circle class="st0" cx="-176.3" cy="365.4" r="3.7"/>
<circle class="st0" cx="-176.3" cy="356.4" r="3.7"/>
<circle class="st0" cx="-176.3" cy="374.4" r="3.7"/>
<circle class="st0" cx="-176.3" cy="383.4" r="3.7"/>
<circle class="st0" cx="-176.3" cy="392.4" r="3.7"/>
<circle class="st0" cx="-167.3" cy="392.4" r="3.7"/>
<circle class="st0" cx="-167.3" cy="401.4" r="3.7"/>
<circle class="st0" cx="-167.3" cy="383.4" r="3.7"/>
<circle class="st0" cx="-167.3" cy="374.4" r="3.7"/>
<circle class="st0" cx="-167.3" cy="365.4" r="3.7"/>
<circle class="st0" cx="-167.3" cy="356.4" r="3.7"/>
<circle class="st0" cx="-158.3" cy="356.4" r="3.7"/>
<circle class="st0" cx="-158.3" cy="347.4" r="3.7"/>
<circle class="st0" cx="-149.3" cy="347.4" r="3.7"/>
<circle class="st0" cx="-140.3" cy="347.4" r="3.7"/>
<circle class="st0" cx="-140.3" cy="356.4" r="3.7"/>
<circle class="st0" cx="-131.3" cy="365.4" r="3.7"/>
<circle class="st0" cx="-149.3" cy="365.4" r="3.7"/>
<circle class="st0" cx="-158.3" cy="365.4" r="3.7"/>
<circle class="st0" cx="-158.3" cy="374.4" r="3.7"/>
<circle class="st0" cx="-149.3" cy="374.4" r="3.7"/>
<circle class="st0" cx="-149.3" cy="383.4" r="3.7"/>
<circle class="st0" cx="-158.3" cy="383.4" r="3.7"/>
<circle class="st0" cx="-158.3" cy="392.4" r="3.7"/>
<circle class="st0" cx="-158.3" cy="401.4" r="3.7"/>
<circle class="st0" cx="-149.3" cy="401.4" r="3.7"/>
<circle class="st0" cx="-149.3" cy="410.4" r="3.7"/>
<circle class="st0" cx="-149.3" cy="419.4" r="3.7"/>
<circle class="st0" cx="-149.3" cy="428.4" r="3.7"/>
<circle class="st0" cx="-149.3" cy="437.4" r="3.7"/>
<circle class="st0" cx="-149.3" cy="446.4" r="3.7"/>
<circle class="st0" cx="-140.3" cy="428.4" r="3.7"/>
<circle class="st0" cx="-140.3" cy="419.4" r="3.7"/>
<circle class="st0" cx="-140.3" cy="410.4" r="3.7"/>
<circle class="st0" cx="-131.3" cy="410.4" r="3.7"/>
<circle class="st0" cx="-131.3" cy="419.4" r="3.7"/>
<circle class="st0" cx="-113.3" cy="410.4" r="3.7"/>
<circle class="st0" cx="-113.3" cy="401.4" r="3.7"/>
<circle class="st0" cx="-113.3" cy="392.4" r="3.7"/>
<circle class="st0" cx="-113.3" cy="383.4" r="3.7"/>
<circle class="st0" cx="-113.3" cy="374.4" r="3.7"/>
<circle class="st0" cx="-104.3" cy="374.4" r="3.7"/>
<circle class="st0" cx="-104.3" cy="383.4" r="3.7"/>
<circle class="st0" cx="-104.3" cy="392.4" r="3.7"/>
<circle class="st0" cx="-104.3" cy="401.4" r="3.7"/>
<circle class="st0" cx="-104.3" cy="410.4" r="3.7"/>
<circle class="st0" cx="-95.3" cy="410.4" r="3.7"/>
<circle class="st0" cx="-95.3" cy="419.4" r="3.7"/>
<circle class="st0" cx="-95.3" cy="428.4" r="3.7"/>
<circle class="st0" cx="-86.3" cy="419.4" r="3.7"/>
<circle class="st0" cx="-86.3" cy="410.4" r="3.7"/>
<circle class="st0" cx="-86.3" cy="401.4" r="3.7"/>
<circle class="st0" cx="-95.3" cy="401.4" r="3.7"/>
<circle class="st0" cx="-95.3" cy="392.4" r="3.7"/>
<circle class="st0" cx="-86.3" cy="392.4" r="3.7"/>
<circle class="st0" cx="-86.3" cy="383.4" r="3.7"/>
<circle class="st0" cx="-95.3" cy="383.4" r="3.7"/>
<circle class="st0" cx="-95.3" cy="374.4" r="3.7"/>
<circle class="st0" cx="-95.3" cy="365.4" r="3.7"/>
<circle class="st0" cx="-86.3" cy="365.4" r="3.7"/>
<circle class="st0" cx="-86.3" cy="374.4" r="3.7"/>
<circle class="st0" cx="-77.3" cy="374.4" r="3.7"/>
<circle class="st0" cx="-77.3" cy="383.4" r="3.7"/>
<circle class="st0" cx="-77.3" cy="392.4" r="3.7"/>
<circle class="st0" cx="-68.3" cy="392.4" r="3.7"/>
<circle class="st0" cx="-68.3" cy="401.4" r="3.7"/>
<circle class="st0" cx="-68.3" cy="383.4" r="3.7"/>
<circle class="st0" cx="-68.3" cy="374.4" r="3.7"/>
<circle class="st0" cx="-68.3" cy="365.4" r="3.7"/>
<circle class="st0" cx="-77.3" cy="365.4" r="3.7"/>
<circle class="st0" cx="-77.3" cy="356.4" r="3.7"/>
<circle class="st0" cx="-77.3" cy="347.4" r="3.7"/>
<circle class="st0" cx="-68.3" cy="347.4" r="3.7"/>
<circle class="st0" cx="-68.3" cy="356.4" r="3.7"/>
<circle class="st0" cx="-59.3" cy="347.4" r="3.7"/>
<circle class="st0" cx="-59.3" cy="356.4" r="3.7"/>
<circle class="st0" cx="-59.3" cy="365.4" r="3.7"/>
<circle class="st0" cx="-59.3" cy="374.4" r="3.7"/>
<circle class="st0" cx="-59.3" cy="383.4" r="3.7"/>
<circle class="st0" cx="-59.3" cy="392.4" r="3.7"/>
<circle class="st0" cx="-50.3" cy="392.4" r="3.7"/>
<circle class="st0" cx="-50.3" cy="383.4" r="3.7"/>
<circle class="st0" cx="-50.3" cy="374.4" r="3.7"/>
<circle class="st0" cx="-50.3" cy="365.4" r="3.7"/>
<circle class="st0" cx="-50.3" cy="356.4" r="3.7"/>
<circle class="st0" cx="-41.3" cy="365.4" r="3.7"/>
<circle class="st0" cx="-41.3" cy="374.4" r="3.7"/>
<circle class="st0" cx="-41.3" cy="383.4" r="3.7"/>
<circle class="st0" cx="-41.3" cy="392.4" r="3.7"/>
<circle class="st0" cx="-41.3" cy="410.4" r="3.7"/>
<circle class="st0" cx="-32.3" cy="410.4" r="3.7"/>
<circle class="st0" cx="-32.3" cy="419.4" r="3.7"/>
<circle class="st0" cx="-32.3" cy="428.4" r="3.7"/>
<circle class="st0" cx="-41.3" cy="428.4" r="3.7"/>
<circle class="st0" cx="-41.3" cy="419.4" r="3.7"/>
<circle class="st0" cx="-50.3" cy="410.4" r="3.7"/>
<circle class="st0" cx="-32.3" cy="383.4" r="3.7"/>
<circle class="st0" cx="-32.3" cy="374.4" r="3.7"/>
<circle class="st0" cx="-23.3" cy="374.4" r="3.7"/>
<circle class="st0" cx="-23.3" cy="365.4" r="3.7"/>
<circle class="st0" cx="-14.3" cy="365.4" r="3.7"/>
<circle class="st0" cx="-32.3" cy="365.4" r="3.7"/>
<circle class="st0" cx="-32.3" cy="356.4" r="3.7"/>
</svg>
